<svg width="18" height="16" viewBox="0 0 18 16" fill="none" xmlns="http://www.w3.org/2000/svg">
<path d="M16.5312 9.72266L17.9082 3.62891C17.9961 3.18945 17.6738 2.75 17.2051 2.75H5.7207L5.45703 1.46094C5.36914 1.13867 5.07617 0.875 4.75391 0.875H1.76562C1.35547 0.875 1.0625 1.19727 1.0625 1.57812V2.04688C1.0625 2.45703 1.35547 2.75 1.76562 2.75H3.78711L5.86719 12.8281C5.36914 13.1211 5.04688 13.6484 5.04688 14.2344C5.04688 15.1426 5.7793 15.875 6.6875 15.875C7.56641 15.875 8.32812 15.1426 8.32812 14.2344C8.32812 13.7949 8.12305 13.3848 7.83008 13.0625H13.9531C13.6602 13.3848 13.4844 13.7949 13.4844 14.2344C13.4844 15.1426 14.2168 15.875 15.125 15.875C16.0039 15.875 16.7656 15.1426 16.7656 14.2344C16.7656 13.5898 16.3848 13.0332 15.8281 12.7695L15.9746 12.0664C16.0918 11.627 15.7402 11.1875 15.3008 11.1875H7.44922L7.24414 10.25H15.8281C16.1504 10.25 16.4434 10.0449 16.5312 9.72266Z" fill="#007FFF"/>
</svg>
