<svg width="89" height="30" viewBox="0 0 89 30" fill="none" xmlns="http://www.w3.org/2000/svg">
<path d="M0.726429 1.09091H3.30988L5.79745 5.78906H5.90399L8.39156 1.09091H10.975L6.99596 8.14347V12H4.70548V8.14347L0.726429 1.09091ZM21.6005 6.54545C21.6005 7.73509 21.375 8.74716 20.924 9.58168C20.4765 10.4162 19.8657 11.0536 19.0916 11.494C18.321 11.9308 17.4545 12.1491 16.4921 12.1491C15.5227 12.1491 14.6527 11.929 13.8821 11.4886C13.1115 11.0483 12.5024 10.4109 12.055 9.57635C11.6076 8.74183 11.3838 7.73153 11.3838 6.54545C11.3838 5.35582 11.6076 4.34375 12.055 3.50923C12.5024 2.67472 13.1115 2.03906 13.8821 1.60227C14.6527 1.16193 15.5227 0.941761 16.4921 0.941761C17.4545 0.941761 18.321 1.16193 19.0916 1.60227C19.8657 2.03906 20.4765 2.67472 20.924 3.50923C21.375 4.34375 21.6005 5.35582 21.6005 6.54545ZM19.262 6.54545C19.262 5.77486 19.1466 5.125 18.9158 4.59588C18.6885 4.06676 18.3671 3.66548 17.9517 3.39205C17.5362 3.11861 17.0497 2.98189 16.4921 2.98189C15.9346 2.98189 15.4481 3.11861 15.0326 3.39205C14.6171 3.66548 14.294 4.06676 14.0632 4.59588C13.8359 5.125 13.7223 5.77486 13.7223 6.54545C13.7223 7.31605 13.8359 7.96591 14.0632 8.49503C14.294 9.02415 14.6171 9.42543 15.0326 9.69886C15.4481 9.9723 15.9346 10.109 16.4921 10.109C17.0497 10.109 17.5362 9.9723 17.9517 9.69886C18.3671 9.42543 18.6885 9.02415 18.9158 8.49503C19.1466 7.96591 19.262 7.31605 19.262 6.54545ZM30.0473 1.09091H32.3537V8.17543C32.3537 8.97088 32.1638 9.6669 31.7838 10.2635C31.4074 10.8601 30.88 11.3253 30.2017 11.6591C29.5235 11.9893 28.7334 12.1545 27.8314 12.1545C26.9258 12.1545 26.1339 11.9893 25.4557 11.6591C24.7774 11.3253 24.25 10.8601 23.8736 10.2635C23.4972 9.6669 23.309 8.97088 23.309 8.17543V1.09091H25.6155V7.97834C25.6155 8.39382 25.706 8.76314 25.8871 9.08629C26.0718 9.40945 26.331 9.66335 26.6648 9.84801C26.9986 10.0327 27.3875 10.125 27.8314 10.125C28.2788 10.125 28.6677 10.0327 28.9979 9.84801C29.3317 9.66335 29.5892 9.40945 29.7703 9.08629C29.9549 8.76314 30.0473 8.39382 30.0473 7.97834V1.09091ZM34.2514 12V1.09091H38.5554C39.3792 1.09091 40.0823 1.23828 40.6647 1.53303C41.2507 1.82422 41.6963 2.23793 42.0017 2.77415C42.3107 3.30682 42.4652 3.93359 42.4652 4.65447C42.4652 5.37891 42.3089 6.00213 41.9964 6.52415C41.6839 7.04261 41.2311 7.44034 40.6381 7.71733C40.0486 7.99432 39.3348 8.13281 38.4968 8.13281H35.615V6.27912H38.1239C38.5642 6.27912 38.93 6.21875 39.2212 6.09801C39.5124 5.97727 39.729 5.79616 39.871 5.55469C40.0166 5.31321 40.0894 5.01314 40.0894 4.65447C40.0894 4.29226 40.0166 3.98686 39.871 3.73828C39.729 3.4897 39.5106 3.30149 39.2159 3.17365C38.9247 3.04226 38.5571 2.97656 38.1132 2.97656H36.5578V12H34.2514ZM40.1427 7.03551L42.854 12H40.3078L37.6551 7.03551H40.1427ZM47.5668 12V1.09091H49.8733V10.0984H54.5501V12H47.5668ZM65.6776 6.54545C65.6776 7.73509 65.4521 8.74716 65.0011 9.58168C64.5537 10.4162 63.9429 11.0536 63.1687 11.494C62.3981 11.9308 61.5316 12.1491 60.5693 12.1491C59.5998 12.1491 58.7298 11.929 57.9592 11.4886C57.1886 11.0483 56.5796 10.4109 56.1321 9.57635C55.6847 8.74183 55.461 7.73153 55.461 6.54545C55.461 5.35582 55.6847 4.34375 56.1321 3.50923C56.5796 2.67472 57.1886 2.03906 57.9592 1.60227C58.7298 1.16193 59.5998 0.941761 60.5693 0.941761C61.5316 0.941761 62.3981 1.16193 63.1687 1.60227C63.9429 2.03906 64.5537 2.67472 65.0011 3.50923C65.4521 4.34375 65.6776 5.35582 65.6776 6.54545ZM63.3392 6.54545C63.3392 5.77486 63.2238 5.125 62.9929 4.59588C62.7657 4.06676 62.4443 3.66548 62.0288 3.39205C61.6133 3.11861 61.1268 2.98189 60.5693 2.98189C60.0118 2.98189 59.5253 3.11861 59.1098 3.39205C58.6943 3.66548 58.3711 4.06676 58.1403 4.59588C57.913 5.125 57.7994 5.77486 57.7994 6.54545C57.7994 7.31605 57.913 7.96591 58.1403 8.49503C58.3711 9.02415 58.6943 9.42543 59.1098 9.69886C59.5253 9.9723 60.0118 10.109 60.5693 10.109C61.1268 10.109 61.6133 9.9723 62.0288 9.69886C62.4443 9.42543 62.7657 9.02415 62.9929 8.49503C63.2238 7.96591 63.3392 7.31605 63.3392 6.54545ZM74.6198 4.61719C74.5452 4.35795 74.4405 4.12891 74.3055 3.93004C74.1706 3.72763 74.0055 3.55717 73.8101 3.41868C73.6184 3.27663 73.3982 3.16832 73.1496 3.09375C72.9046 3.01918 72.6329 2.98189 72.3347 2.98189C71.7771 2.98189 71.2871 3.12038 70.8645 3.39737C70.4454 3.67436 70.1187 4.07741 69.8844 4.60653C69.65 5.1321 69.5328 5.77486 69.5328 6.5348C69.5328 7.29474 69.6482 7.94105 69.879 8.47372C70.1099 9.00639 70.4366 9.413 70.8592 9.69354C71.2817 9.97053 71.7807 10.109 72.356 10.109C72.878 10.109 73.3236 10.0167 73.693 9.83203C74.0658 9.64382 74.3499 9.37926 74.5452 9.03835C74.7441 8.69744 74.8435 8.29439 74.8435 7.82919L75.3123 7.89844H72.4998V6.16193H77.0648V7.53622C77.0648 8.49503 76.8623 9.31889 76.4575 10.0078C76.0527 10.6932 75.4952 11.2223 74.7849 11.5952C74.0747 11.9645 73.2615 12.1491 72.3453 12.1491C71.3226 12.1491 70.4241 11.9237 69.65 11.4727C68.8758 11.0181 68.2722 10.3736 67.8389 9.53906C67.4092 8.70099 67.1944 7.70668 67.1944 6.55611C67.1944 5.67187 67.3222 4.88352 67.5779 4.19105C67.8371 3.49503 68.1994 2.90554 68.6646 2.42259C69.1297 1.93963 69.6713 1.57209 70.2892 1.31996C70.9071 1.06783 71.5765 0.941761 72.2974 0.941761C72.9153 0.941761 73.4905 1.03232 74.0232 1.21342C74.5559 1.39098 75.0282 1.64311 75.4401 1.96982C75.8556 2.29652 76.1947 2.68537 76.4575 3.13636C76.7203 3.58381 76.889 4.07741 76.9636 4.61719H74.6198ZM88.8221 6.54545C88.8221 7.73509 88.5966 8.74716 88.1456 9.58168C87.6982 10.4162 87.0874 11.0536 86.3133 11.494C85.5427 11.9308 84.6762 12.1491 83.7138 12.1491C82.7444 12.1491 81.8743 11.929 81.1037 11.4886C80.3331 11.0483 79.7241 10.4109 79.2767 9.57635C78.8292 8.74183 78.6055 7.73153 78.6055 6.54545C78.6055 5.35582 78.8292 4.34375 79.2767 3.50923C79.7241 2.67472 80.3331 2.03906 81.1037 1.60227C81.8743 1.16193 82.7444 0.941761 83.7138 0.941761C84.6762 0.941761 85.5427 1.16193 86.3133 1.60227C87.0874 2.03906 87.6982 2.67472 88.1456 3.50923C88.5966 4.34375 88.8221 5.35582 88.8221 6.54545ZM86.4837 6.54545C86.4837 5.77486 86.3683 5.125 86.1375 4.59588C85.9102 4.06676 85.5888 3.66548 85.1733 3.39205C84.7579 3.11861 84.2714 2.98189 83.7138 2.98189C83.1563 2.98189 82.6698 3.11861 82.2543 3.39205C81.8388 3.66548 81.5157 4.06676 81.2848 4.59588C81.0576 5.125 80.9439 5.77486 80.9439 6.54545C80.9439 7.31605 81.0576 7.96591 81.2848 8.49503C81.5157 9.02415 81.8388 9.42543 82.2543 9.69886C82.6698 9.9723 83.1563 10.109 83.7138 10.109C84.2714 10.109 84.7579 9.9723 85.1733 9.69886C85.5888 9.42543 85.9102 9.02415 86.1375 8.49503C86.3683 7.96591 86.4837 7.31605 86.4837 6.54545ZM26.246 30V19.0909H28.5525V23.592H33.2346V19.0909H35.5358V30H33.2346V25.4936H28.5525V30H26.246ZM37.4374 30V19.0909H44.7883V20.9925H39.7439V23.592H44.4101V25.4936H39.7439V28.0984H44.8096V30H37.4374ZM46.622 30V19.0909H50.926C51.7498 19.0909 52.4529 19.2383 53.0353 19.533C53.6213 19.8242 54.0669 20.2379 54.3723 20.7741C54.6813 21.3068 54.8358 21.9336 54.8358 22.6545C54.8358 23.3789 54.6795 24.0021 54.367 24.5241C54.0545 25.0426 53.6017 25.4403 53.0087 25.7173C52.4192 25.9943 51.7054 26.1328 50.8674 26.1328H47.9856V24.2791H50.4945C50.9348 24.2791 51.3006 24.2187 51.5918 24.098C51.883 23.9773 52.0996 23.7962 52.2417 23.5547C52.3873 23.3132 52.46 23.0131 52.46 22.6545C52.46 22.2923 52.3873 21.9869 52.2417 21.7383C52.0996 21.4897 51.8812 21.3015 51.5865 21.1737C51.2953 21.0423 50.9277 20.9766 50.4838 20.9766H48.9284V30H46.622ZM52.5133 25.0355L55.2246 30H52.6784L50.0257 25.0355H52.5133ZM56.4657 30V19.0909H63.8166V20.9925H58.7722V23.592H63.4384V25.4936H58.7722V28.0984H63.8379V30H56.4657Z" fill="black"/>
</svg>
