<svg width="142" height="47" viewBox="0 0 142 47" fill="none" xmlns="http://www.w3.org/2000/svg">
<path d="M0.662287 0.545454H4.79581L8.77592 8.0625H8.94638L12.9265 0.545454H17.06L10.6935 11.8295V18H7.02876V11.8295L0.662287 0.545454ZM34.0607 9.27273C34.0607 11.1761 33.6999 12.7955 32.9783 14.1307C32.2624 15.4659 31.2852 16.4858 30.0465 17.1903C28.8136 17.8892 27.4272 18.2386 25.8874 18.2386C24.3363 18.2386 22.9442 17.8864 21.7113 17.1818C20.4783 16.4773 19.5039 15.4574 18.788 14.1222C18.0721 12.7869 17.7141 11.1705 17.7141 9.27273C17.7141 7.36932 18.0721 5.75 18.788 4.41477C19.5039 3.07955 20.4783 2.0625 21.7113 1.36364C22.9442 0.659091 24.3363 0.306818 25.8874 0.306818C27.4272 0.306818 28.8136 0.659091 30.0465 1.36364C31.2852 2.0625 32.2624 3.07955 32.9783 4.41477C33.6999 5.75 34.0607 7.36932 34.0607 9.27273ZM30.3192 9.27273C30.3192 8.03977 30.1346 7 29.7653 6.15341C29.4016 5.30682 28.8874 4.66477 28.2227 4.22727C27.5579 3.78977 26.7795 3.57102 25.8874 3.57102C24.9954 3.57102 24.217 3.78977 23.5522 4.22727C22.8874 4.66477 22.3704 5.30682 22.0011 6.15341C21.6374 7 21.4556 8.03977 21.4556 9.27273C21.4556 10.5057 21.6374 11.5455 22.0011 12.392C22.3704 13.2386 22.8874 13.8807 23.5522 14.3182C24.217 14.7557 24.9954 14.9744 25.8874 14.9744C26.7795 14.9744 27.5579 14.7557 28.2227 14.3182C28.8874 13.8807 29.4016 13.2386 29.7653 12.392C30.1346 11.5455 30.3192 10.5057 30.3192 9.27273ZM47.5756 0.545454H51.266V11.8807C51.266 13.1534 50.962 14.267 50.354 15.2216C49.7518 16.1761 48.908 16.9205 47.8228 17.4545C46.7376 17.983 45.4734 18.2472 44.0302 18.2472C42.5813 18.2472 41.3143 17.983 40.229 17.4545C39.1438 16.9205 38.3001 16.1761 37.6978 15.2216C37.0955 14.267 36.7944 13.1534 36.7944 11.8807V0.545454H40.4847V11.5653C40.4847 12.2301 40.6296 12.821 40.9194 13.3381C41.2148 13.8551 41.6296 14.2614 42.1637 14.5568C42.6978 14.8523 43.32 15 44.0302 15C44.7461 15 45.3683 14.8523 45.8967 14.5568C46.4308 14.2614 46.8427 13.8551 47.1325 13.3381C47.4279 12.821 47.5756 12.2301 47.5756 11.5653V0.545454ZM54.3022 18V0.545454H61.1886C62.5067 0.545454 63.6317 0.78125 64.5636 1.25284C65.5011 1.71875 66.2141 2.38068 66.7028 3.23864C67.1971 4.09091 67.4442 5.09375 67.4442 6.24716C67.4442 7.40625 67.1942 8.40341 66.6942 9.23864C66.1942 10.0682 65.4698 10.7045 64.521 11.1477C63.5778 11.5909 62.4357 11.8125 61.0948 11.8125H56.484V8.84659H60.4982C61.2028 8.84659 61.788 8.75 62.2539 8.55682C62.7198 8.36364 63.0664 8.07386 63.2937 7.6875C63.5266 7.30114 63.6431 6.82102 63.6431 6.24716C63.6431 5.66761 63.5266 5.17898 63.2937 4.78125C63.0664 4.38352 62.717 4.08239 62.2454 3.87784C61.7795 3.66761 61.1914 3.5625 60.4812 3.5625H57.9925V18H54.3022ZM63.7283 10.0568L68.0664 18H63.9925L59.7482 10.0568H63.7283ZM75.6069 18V0.545454H79.2972V14.9574H86.7802V18H75.6069ZM104.584 9.27273C104.584 11.1761 104.223 12.7955 103.502 14.1307C102.786 15.4659 101.809 16.4858 100.57 17.1903C99.337 17.8892 97.9506 18.2386 96.4109 18.2386C94.8597 18.2386 93.4677 17.8864 92.2347 17.1818C91.0018 16.4773 90.0273 15.4574 89.3114 14.1222C88.5955 12.7869 88.2376 11.1705 88.2376 9.27273C88.2376 7.36932 88.5955 5.75 89.3114 4.41477C90.0273 3.07955 91.0018 2.0625 92.2347 1.36364C93.4677 0.659091 94.8597 0.306818 96.4109 0.306818C97.9506 0.306818 99.337 0.659091 100.57 1.36364C101.809 2.0625 102.786 3.07955 103.502 4.41477C104.223 5.75 104.584 7.36932 104.584 9.27273ZM100.843 9.27273C100.843 8.03977 100.658 7 100.289 6.15341C99.9251 5.30682 99.4109 4.66477 98.7461 4.22727C98.0813 3.78977 97.3029 3.57102 96.4109 3.57102C95.5188 3.57102 94.7404 3.78977 94.0756 4.22727C93.4109 4.66477 92.8938 5.30682 92.5245 6.15341C92.1609 7 91.979 8.03977 91.979 9.27273C91.979 10.5057 92.1609 11.5455 92.5245 12.392C92.8938 13.2386 93.4109 13.8807 94.0756 14.3182C94.7404 14.7557 95.5188 14.9744 96.4109 14.9744C97.3029 14.9744 98.0813 14.7557 98.7461 14.3182C99.4109 13.8807 99.9251 13.2386 100.289 12.392C100.658 11.5455 100.843 10.5057 100.843 9.27273ZM118.892 6.1875C118.772 5.77273 118.605 5.40625 118.389 5.08807C118.173 4.7642 117.909 4.49148 117.596 4.26989C117.289 4.04261 116.937 3.86932 116.539 3.75C116.147 3.63068 115.713 3.57102 115.235 3.57102C114.343 3.57102 113.559 3.79261 112.883 4.23579C112.213 4.67898 111.69 5.32386 111.315 6.17045C110.94 7.01136 110.752 8.03977 110.752 9.25568C110.752 10.4716 110.937 11.5057 111.306 12.358C111.676 13.2102 112.199 13.8608 112.875 14.3097C113.551 14.7528 114.349 14.9744 115.27 14.9744C116.105 14.9744 116.818 14.8267 117.409 14.5312C118.005 14.2301 118.46 13.8068 118.772 13.2614C119.091 12.7159 119.25 12.071 119.25 11.3267L120 11.4375H115.5V8.65909H122.804V10.858C122.804 12.392 122.48 13.7102 121.832 14.8125C121.184 15.9091 120.292 16.7557 119.156 17.3523C118.02 17.9432 116.718 18.2386 115.252 18.2386C113.616 18.2386 112.179 17.8778 110.94 17.1562C109.701 16.429 108.735 15.3977 108.042 14.0625C107.355 12.7216 107.011 11.1307 107.011 9.28977C107.011 7.875 107.216 6.61364 107.625 5.50568C108.039 4.39205 108.619 3.44886 109.363 2.67614C110.108 1.90341 110.974 1.31534 111.963 0.911931C112.951 0.508522 114.022 0.306818 115.176 0.306818C116.164 0.306818 117.085 0.451704 117.937 0.741477C118.789 1.02557 119.545 1.42898 120.204 1.9517C120.869 2.47443 121.412 3.09659 121.832 3.81818C122.252 4.53409 122.522 5.32386 122.642 6.1875H118.892ZM141.615 9.27273C141.615 11.1761 141.255 12.7955 140.533 14.1307C139.817 15.4659 138.84 16.4858 137.601 17.1903C136.368 17.8892 134.982 18.2386 133.442 18.2386C131.891 18.2386 130.499 17.8864 129.266 17.1818C128.033 16.4773 127.059 15.4574 126.343 14.1222C125.627 12.7869 125.269 11.1705 125.269 9.27273C125.269 7.36932 125.627 5.75 126.343 4.41477C127.059 3.07955 128.033 2.0625 129.266 1.36364C130.499 0.659091 131.891 0.306818 133.442 0.306818C134.982 0.306818 136.368 0.659091 137.601 1.36364C138.84 2.0625 139.817 3.07955 140.533 4.41477C141.255 5.75 141.615 7.36932 141.615 9.27273ZM137.874 9.27273C137.874 8.03977 137.689 7 137.32 6.15341C136.956 5.30682 136.442 4.66477 135.777 4.22727C135.113 3.78977 134.334 3.57102 133.442 3.57102C132.55 3.57102 131.772 3.78977 131.107 4.22727C130.442 4.66477 129.925 5.30682 129.556 6.15341C129.192 7 129.01 8.03977 129.01 9.27273C129.01 10.5057 129.192 11.5455 129.556 12.392C129.925 13.2386 130.442 13.8807 131.107 14.3182C131.772 14.7557 132.55 14.9744 133.442 14.9744C134.334 14.9744 135.113 14.7557 135.777 14.3182C136.442 13.8807 136.956 13.2386 137.32 12.392C137.689 11.5455 137.874 10.5057 137.874 9.27273ZM41.4936 47V29.5455H45.1839V36.7472H52.6754V29.5455H56.3572V47H52.6754V39.7898H45.1839V47H41.4936ZM59.3999 47V29.5455H71.1612V32.5881H63.0902V36.7472H70.5561V39.7898H63.0902V43.9574H71.1953V47H59.3999ZM74.0952 47V29.5455H80.9815C82.2997 29.5455 83.4247 29.7812 84.3565 30.2528C85.294 30.7187 86.0071 31.3807 86.4957 32.2386C86.9901 33.0909 87.2372 34.0937 87.2372 35.2472C87.2372 36.4062 86.9872 37.4034 86.4872 38.2386C85.9872 39.0682 85.2628 39.7045 84.3139 40.1477C83.3707 40.5909 82.2287 40.8125 80.8878 40.8125H76.277V37.8466H80.2912C80.9957 37.8466 81.581 37.75 82.0469 37.5568C82.5128 37.3636 82.8594 37.0739 83.0866 36.6875C83.3196 36.3011 83.4361 35.821 83.4361 35.2472C83.4361 34.6676 83.3196 34.179 83.0866 33.7812C82.8594 33.3835 82.5099 33.0824 82.0384 32.8778C81.5724 32.6676 80.9844 32.5625 80.2741 32.5625H77.7855V47H74.0952ZM83.5213 39.0568L87.8594 47H83.7855L79.5412 39.0568H83.5213ZM89.8452 47V29.5455H101.607V32.5881H93.5355V36.7472H101.001V39.7898H93.5355V43.9574H101.641V47H89.8452Z" fill="white"/>
</svg>
